{
  "accessors": [
    {
      "bufferView": 0,
      "componentType": 5125,
      "count": 121110,
      "type": "SCALAR"
    },
    {
      "bufferView": 1,
      "componentType": 5126,
      "count": 21348,
      "max": [
        0.988581657409668,
        1.00000011920929,
        0.964233040809631
      ],
      "min": [
        -0.988581717014313,
        -1.0,
        -0.964232981204987
      ],
      "type": "VEC3"
    },
    {
      "bufferView": 2,
      "componentType": 5126,
      "count": 21348,
      "type": "VEC3"
    },
    {
      "bufferView": 3,
      "componentType": 5126,
      "count": 21348,
      "type": "VEC2"
    }
  ],
  "asset": {
    "generator": "Substance Painter 2018.3.1",
    "version": "2.0"
  },
  "bufferViews": [
    {
      "buffer": 0,
      "byteLength": 484440,
      "target": 34963
    },
    {
      "buffer": 0,
      "byteLength": 256176,
      "byteOffset": 484440,
      "target": 34962
    },
    {
      "buffer": 0,
      "byteLength": 256176,
      "byteOffset": 740616,
      "target": 34962
    },
    {
      "buffer": 0,
      "byteLength": 170784,
      "byteOffset": 996792,
      "target": 34962
    }
  ],
  "buffers": [
    {
      "byteLength": 1167576,
      "uri": "PreviewSphere.bin"
    }
  ],
  "images": [
    {
      "uri": "Sphere_baseColor.png"
    },
    {
      "uri": "Sphere_occlusionRoughnessMetallic.png"
    },
    {
      "uri": "Sphere_normal.png"
    }
  ],
  "materials": [
    {
      "alphaMode": "OPAQUE",
      "name": "Sphere",
      "normalTexture": {
        "index": 2
      },
      "occlusionTexture": {
        "index": 1
      },
      "pbrMetallicRoughness": {
        "baseColorTexture": {
          "index": 0
        },
        "metallicRoughnessTexture": {
          "index": 1
        }
      }
    }
  ],
  "meshes": [
    {
      "name": "PreviewSphere",
      "primitives": [
        {
          "attributes": {
            "NORMAL": 2,
            "POSITION": 1,
            "TEXCOORD_0": 3
          },
          "indices": 0,
          "material": 0,
          "mode": 4
        }
      ]
    }
  ],
  "nodes": [
    {
      "children": [
        1
      ],
      "name": "root"
    },
    {
      "children": [
        2
      ],
      "name": "PreviewSphere"
    },
    {
      "mesh": 0,
      "name": "PreviewSphere"
    }
  ],
  "samplers": [
    {
      "magFilter": 9729,
      "minFilter": 9985,
      "wrapS": 10497,
      "wrapT": 10497
    }
  ],
  "scene": 0,
  "scenes": [
    {
      "name": "Scene",
      "nodes": [
        0
      ]
    }
  ],
  "textures": [
    {
      "sampler": 0,
      "source": 0
    },
    {
      "sampler": 0,
      "source": 1
    },
    {
      "sampler": 0,
      "source": 2
    }
  ]
}